Coordinates
version=1
nRows=17
nColumns=24
inDegrees=yes

Units are S.I. units (second, meters, Newtons, ...)
Angles are in degrees.

endheader
time	pelvis_tilt	pelvis_list	pelvis_rotation	pelvis_tx	pelvis_ty	pelvis_tz	hip_flexion_r	hip_adduction_r	hip_rotation_r	knee_angle_r	ankle_angle_r	subtalar_angle_r	mtp_angle_r	hip_flexion_l	hip_adduction_l	hip_rotation_l	knee_angle_l	ankle_angle_l	subtalar_angle_l	mtp_angle_l	lumbar_extension	lumbar_bending	lumbar_rotation
      0.68616667	     -0.88888859	     -0.58587184	      6.48894249	     -0.41980641	      1.05913303	      0.30041792	     14.50440317	      0.60222359	     -5.90167132	    -27.13401477	     15.71805161	     -5.36896461	     -0.55181375	     18.74835230	     -4.46423246	     -3.42610738	    -73.98860232	      2.89477938	      6.61941925	      0.50511964	     -7.60590937	      3.45434673	     -0.36840318
      0.69033333	     -0.89160979	     -0.39081573	      6.45313078	     -0.41384563	      1.06061221	      0.30029790	     13.90204045	      0.44156883	     -5.86442558	    -26.66877435	     15.83284616	     -5.24192561	     -0.53175174	     19.26265812	     -4.16743702	     -3.69041793	    -73.56498423	      3.27820374	      7.13165592	      0.55406963	     -7.57879634	      3.26384306	     -0.28495356
      0.69450000	     -0.91625615	     -0.16702535	      6.40691893	     -0.40789682	      1.06203980	      0.30017689	     13.32714671	      0.24644898	     -5.81537670	    -26.21312549	     15.89547400	     -5.15179313	     -0.51831196	     19.77626337	     -3.83130727	     -3.95645523	    -73.06378538	      3.64682233	      7.64052835	      0.59420598	     -7.53862808	      3.03436820	     -0.24381927
      0.69866667	     -0.93041555	      0.04279606	      6.35329639	     -0.40192495	      1.06347173	      0.30005486	     12.73112659	      0.06925179	     -5.76174737	    -25.73039747	     15.96249855	     -5.05372884	     -0.50291399	     20.25985040	     -3.52010237	     -4.22745751	    -72.49646252	      4.01262155	      8.19114143	      0.63945321	     -7.50303235	      2.82315582	     -0.18318725
      0.70283333	     -0.94407395	      0.24621639	      6.29071443	     -0.39595924	      1.06486526	      0.29994031	     12.13502566	     -0.09981676	     -5.70282008	    -25.23998547	     16.01521152	     -4.96473077	     -0.48694976	     20.72618119	     -3.22062704	     -4.49754529	    -71.86793943	      4.37709978	      8.76542134	      0.68875526	     -7.47129302	      2.61483127	     -0.11291381
      0.70700000	     -0.95891036	      0.45701185	      6.21717508	     -0.38999127	      1.06621832	      0.29983571	     11.54075180	     -0.27670611	     -5.63454455	    -24.74692651	     16.06261221	     -4.88092788	     -0.46942462	     21.17382867	     -2.91836933	     -4.77371651	    -71.17612314	      4.72915565	      9.34144706	      0.74199904	     -7.43549429	      2.39784164	     -0.03346089
      0.71116667	     -0.94254215	      0.64887559	      6.13786586	     -0.38402278	      1.06759798	      0.29973660	     10.90270619	     -0.42603360	     -5.55278238	    -24.22196247	     16.10876261	     -4.81036321	     -0.44022677	     21.57319782	     -2.64859271	     -5.04781213	    -70.42899854	      5.07703229	      9.91892845	      0.82569287	     -7.43886163	      2.19594728	      0.10157901
      0.71533333	     -0.97446325	      0.86896723	      6.05053128	     -0.37806482	      1.06885195	      0.29962672	     10.33269203	     -0.61709793	     -5.47543466	    -23.73156473	     16.11189661	     -4.75223884	     -0.42435622	     22.00174729	     -2.33425577	     -5.31280961	    -69.61307454	      5.39503887	     10.44792943	      0.87896192	     -7.38731836	      1.96867303	      0.15700938
      0.71950000	     -0.97149744	      1.07141821	      5.95490269	     -0.37209982	      1.07010600	      0.29954444	      9.71693605	     -0.78014642	     -5.38132881	    -23.21565546	     16.15281338	     -4.69352724	     -0.39749434	     22.37773434	     -2.05930207	     -5.58388027	    -68.74970948	      5.71711378	     10.99179727	      0.95973202	     -7.37434006	      1.75052559	      0.28549206
      0.72366667	     -0.99372619	      1.27316066	      5.85349365	     -0.36614914	      1.07127277	      0.29945779	      9.13475851	     -0.94653305	     -5.27675738	    -22.70409698	     16.15383037	     -4.65377277	     -0.36923538	     22.76540721	     -1.77852662	     -5.83874019	    -67.83079791	      6.02176394	     11.48269217	      1.04909743	     -7.33839840	      1.52898194	      0.40833602
      0.72783333	     -1.04449601	      1.48497622	      5.75221390	     -0.36020538	      1.07232617	      0.29934349	      8.59710486	     -1.13451251	     -5.19401329	    -22.22198337	     16.14015921	     -4.61014346	     -0.35697072	     23.16731782	     -1.47818878	     -6.07781274	    -66.85852029	      6.30223816	     11.90987224	      1.09644099	     -7.26263704	      1.30463539	      0.46054185
      0.73200000	     -1.03300081	      1.67777976	      5.63889510	     -0.35428533	      1.07343329	      0.29926805	      7.98138736	     -1.28745746	     -5.07371349	    -21.69968978	     16.13441327	     -4.59325426	     -0.32392688	     23.48684568	     -1.21913192	     -6.31628059	    -65.83957955	      6.58875279	     12.32960421	      1.20799588	     -7.27261828	      1.08774026	      0.65666782
      0.73616667	     -1.10629549	      1.88901986	      5.52773067	     -0.34834492	      1.07432755	      0.29916630	      7.47896217	     -1.47909136	     -4.98235577	    -21.23042846	     16.13827783	     -4.55709523	     -0.31359046	     23.87880468	     -0.92388847	     -6.53733253	    -64.76515446	      6.83535167	     12.66746350	      1.25076019	     -7.16627916	      0.85928503	      0.70017588
      0.74033333	     -1.12483020	      2.07362816	      5.40984623	     -0.34243737	      1.07523868	      0.29909170	      6.91111223	     -1.63028893	     -4.86295622	    -20.73275729	     16.15596724	     -4.54623931	     -0.29489320	     24.20307267	     -0.67473103	     -6.74948945	    -63.65649779	      7.07882711	     12.98131259	      1.32731206	     -7.13495011	      0.65022415	      0.86659226
      0.74450000	     -1.20039696	      2.26326810	      5.30303301	     -0.33653501	      1.07598771	      0.29896420	      6.41976450	     -1.80339568	     -4.77840379	    -20.26702637	     16.13150363	     -4.51624469	     -0.28859022	     24.57416917	     -0.39787634	     -6.91858615	    -62.49865141	      7.31080173	     13.20036275	      1.36498632	     -7.03204940	      0.44739775	      0.93336391
      0.74866667	     -1.25657585	      2.45781665	      5.18414449	     -0.33064520	      1.07670963	      0.29887545	      5.91065954	     -1.97725666	     -4.67740356	    -19.80092840	     16.13012144	     -4.49982893	     -0.28316031	     24.90358603	     -0.12867827	     -7.09048207	    -61.28924483	      7.51876910	     13.37891935	      1.40233901	     -6.95760690	      0.22579940	      1.03731897
      0.75283333	     -1.31868374	      2.63034090	      5.07101268	     -0.32478210	      1.07732528	      0.29877000	      5.41413055	     -2.13031231	     -4.58200886	    -19.33995911	     16.13193066	     -4.48892799	     -0.27907322	     25.23278263	      0.11904251	     -7.23102854	    -60.04938802	      7.71354070	     13.49095158	      1.43991920	     -6.87673105	      0.03145374	      1.16750107
